<svg width="30" height="30" xmlns="http://www.w3.org/2000/svg">
    <g fill="none" fill-rule="evenodd">
        <path d="M0 0h30v30H0z"/>
        <g transform="translate(4 4)">
            <ellipse fill-opacity=".18" fill="#595959" fill-rule="nonzero" cx="8.397" cy="13.735" rx="8.397" ry="8.265"/>
            <path d="m5.188.33 4.771 4.697c.26.256.26.683 0 .939L8.675 7.229a.693.693 0 0 0-.139.786c.417.854 1.51 2.68 3.4 3.586a.755.755 0 0 0 .851-.154l1.51-1.485a.52.52 0 0 1 .71 0l5.24 5.156c.833.82-.71 1.947-1.266 2.51-.937.94-1.926 1.623-3.296 1.725-1.388.103-2.846-.29-4.043-.973C8.832 16.74 3.123 12.847.555 6.734c0 0-.034-.102-.07-.29C.209 4.89.712 3.302 1.788 2.158L3.505.348C3.99-.113 4.737-.113 5.188.33z" stroke="#595959" stroke-linecap="round"/>
            <circle stroke="#595959" stroke-linecap="round" cx="15.893" cy="6.393" r="1"/>
            <circle stroke="#595959" stroke-linecap="round" cx="21.011" cy="6.393" r="1"/>
        </g>
    </g>
</svg>
