<?xml version="1.0" encoding="utf-8"?>
<!-- Generator: Adobe Illustrator 26.5.0, SVG Export Plug-In . SVG Version: 6.00 Build 0)  -->
<svg version="1.1" id="Layer_1" xmlns="http://www.w3.org/2000/svg" xmlns:xlink="http://www.w3.org/1999/xlink" x="0px" y="0px"
	 width="30px" height="30px" viewBox="0 0 30 30" style="enable-background:new 0 0 30 30;" xml:space="preserve">
<style type="text/css">
	.st0{opacity:0.18;fill:#595959;enable-background:new    ;}
	.st1{fill-rule:evenodd;clip-rule:evenodd;fill:#595959;}
</style>
<path class="st0" d="M10.9,15c0,5.5,4.5,10-0.9,10s-9.7-4.5-9.7-10C0.3,9.5,4.7,5,10,5C15.4,5,10.9,9.5,10.9,15z"/>
<path class="st1" d="M17.9,9c0,1.5-1.3,2.8-2.9,2.8s-2.9-1.3-2.9-2.8s1.3-2.8,2.9-2.8C16.7,6.2,17.9,7.5,17.9,9z M19.1,9
	c0,2.2-1.8,4-4.1,4c-2.2,0-4.1-1.8-4.1-4s1.8-4,4.1-4S19.1,6.8,19.1,9z M15.3,14.9c-2.6-0.2-4.4,0.8-5.7,2.2
	c-1.2,1.4-1.9,3.1-2.2,4.5c-0.2,0.9,0.2,1.9,1.1,2.3c2.7,1.5,7.7,2.9,13.1,0c0.8-0.4,1.4-1.4,1.2-2.4C22.3,19,20.3,15.3,15.3,14.9z
	 M8.6,21.8c0.3-1.3,0.9-2.8,1.9-3.9s2.5-1.9,4.7-1.8c4.3,0.3,5.9,3.4,6.4,5.7c0.1,0.4-0.1,0.8-0.5,1.1c-4.9,2.6-9.6,1.4-12,0
	C8.7,22.7,8.5,22.3,8.6,21.8z M28.1,15.8c-1-1-2.4-1.7-4.4-1.6c-0.8,0.1-1.4,0.2-1.9,0.5s-0.9,0.6-1.3,0.9l0,0
	c-0.3,0.2-0.3,0.6-0.1,0.8c0.2,0.3,0.6,0.3,0.8,0.1l0,0c0.4-0.3,0.7-0.6,1.1-0.8c0.3-0.2,0.8-0.3,1.4-0.3c1.6-0.1,2.7,0.4,3.5,1.2
	c0.8,0.8,1.3,1.9,1.5,2.9c0.1,0.4-0.1,0.8-0.5,1.1c-1,0.6-2.2,1.1-4.3,0.9c-0.3,0-0.6,0.2-0.6,0.5s0.2,0.6,0.5,0.6
	c2.3,0.2,3.9-0.4,5-1.1c0.8-0.5,1.2-1.4,1-2.4S29.1,16.8,28.1,15.8z M25.9,10c0,1.2-1,2.1-2.2,2.1s-2.2-1-2.2-2.1
	c0-1.2,1-2.1,2.2-2.1S25.9,8.9,25.9,10z M27.1,10c0,1.8-1.5,3.3-3.4,3.3s-3.4-1.5-3.4-3.3s1.5-3.3,3.4-3.3S27.1,8.2,27.1,10z
	 M2,15.8c1-1,2.4-1.7,4.4-1.6c0.8,0.1,1.4,0.2,1.9,0.5s0.9,0.6,1.3,0.9l0,0c0.3,0.2,0.3,0.6,0.1,0.8c-0.2,0.3-0.6,0.3-0.8,0.1l0,0
	c-0.4-0.3-0.7-0.6-1.1-0.8c-0.3-0.2-0.8-0.3-1.4-0.3c-1.6-0.1-2.7,0.4-3.5,1.2c-0.8,0.8-1.3,1.9-1.5,2.9c-0.1,0.4,0.1,0.8,0.5,1.1
	c1,0.6,2.2,1.1,4.3,0.9c0.3,0,0.6,0.2,0.6,0.5s-0.2,0.6-0.5,0.6c-2.3,0.2-3.9-0.4-5-1.1c-0.8-0.5-1.2-1.4-1-2.4
	C0.4,18.1,1,16.8,2,15.8z M4.2,10c0,1.2,1,2.1,2.2,2.1s2.2-1,2.2-2.1c0-1.2-1-2.1-2.2-2.1S4.2,8.9,4.2,10z M3,10
	c0,1.8,1.5,3.3,3.4,3.3s3.4-1.5,3.4-3.3S8.2,6.7,6.4,6.7S3,8.2,3,10z"/>
</svg>
