<svg width="30" height="30" xmlns="http://www.w3.org/2000/svg">
    <g fill="none" fill-rule="evenodd">
        <path d="M0 0h30v30H0z"/>
        <g transform="translate(4 4)">
            <ellipse fill-opacity=".18" fill="#595959" fill-rule="nonzero" cx="9.092" cy="12.581" rx="9.092" ry="8.818"/>
            <path d="m20.138 17.98-6.78 3.635c-.962.51-2.094.51-3.056.016l-6.765-3.543a3.39 3.39 0 0 1-1.8-3.047l.032-3.992v-4.1a3.42 3.42 0 0 1 1.8-3.016L10.301.375a3.241 3.241 0 0 1 3.056.016l6.858 3.65A3.399 3.399 0 0 1 22 7.044v3.82l-.078 4.162a3.45 3.45 0 0 1-1.784 2.955z" stroke="#595959"/>
            <g fill="#595959" fill-rule="nonzero">
                <path d="M8.673 8.837a.998.998 0 0 1 0-1.995.998.998 0 0 1 0 1.995zM16.042 14.205c0 .542-.465.99-1.008.99-.543 0-.978-.464-.978-.99 0-.541.466-.99 1.009-.99.543 0 .977.449.977.99z"/>
            </g>
            <path stroke="#595959" stroke-linecap="round" stroke-linejoin="round" d="m7.85 15.071 8.053-8.028"/>
        </g>
    </g>
</svg>
