<svg width="19" height="23" viewBox="0 0 19 23" fill="none" xmlns="http://www.w3.org/2000/svg">
<path d="M11.0888 21.8037H1.66822C0.735981 21.8037 0 21.0678 0 20.1355V2.66822C0 1.73598 0.735981 1 1.66822 1H11.0888V21.8037V21.8037Z" fill="#595959" opacity=".18"/>
<path d="M16.3879 22H1.96265V1H16.3879C17.3692 1 18.2033 1.83411 18.2033 2.81542V20.2336C18.2033 21.1659 17.3692 22 16.3879 22Z" stroke="#595959" stroke-width="0.75" stroke-miterlimit="10"/>
<path d="M3.97437 1.1472V4.04206" stroke="#595959" stroke-width="0.75" stroke-miterlimit="10" stroke-linecap="round"/>
<path d="M3.97437 6.00467V21.8037" stroke="#595959" stroke-width="0.75" stroke-miterlimit="10" stroke-linecap="round"/>
<path d="M11.0888 15.6706C13.4192 15.6706 15.3084 13.7814 15.3084 11.4509C15.3084 9.1205 13.4192 7.23131 11.0888 7.23131C8.75833 7.23131 6.86914 9.1205 6.86914 11.4509C6.86914 13.7814 8.75833 15.6706 11.0888 15.6706Z" stroke="#595959" stroke-width="0.75" stroke-miterlimit="10"/>
<path d="M11.0889 15.6706C11.9018 15.6706 12.5609 13.7814 12.5609 11.4509C12.5609 9.1205 11.9018 7.23131 11.0889 7.23131C10.276 7.23131 9.61694 9.1205 9.61694 11.4509C9.61694 13.7814 10.276 15.6706 11.0889 15.6706Z" stroke="#595959" stroke-width="0.75" stroke-miterlimit="10"/>
<path d="M7.01636 10.3715H15.2103" stroke="#595959" stroke-width="0.75" stroke-miterlimit="10"/>
<path d="M7.01636 12.5794H15.2103" stroke="#595959" stroke-width="0.75" stroke-miterlimit="10"/>
</svg>
